# xmcd
#
# Track frame offsets: 
#        150
#        14551
#        32822
#        51127
#        71059
#        83289
#        104044
#        119606
#        137605
#        154137
#        171544
#        191071
#        204646
#
# Disc length: 2944 seconds
#
# Revision: 6
# Processed by: cddbd v1.5.2PL0 Copyright (c) Steve Scherf et al.
# Submitted via: ExactAudioCopy v1.0b1
#
DISCID=be0b7e0d
DTITLE=Chris LeDoux - One Road Man
DYEAR=1998
DGENRE=Country
TTITLE0=One Tonight
TTITLE1=Runaway Love
TTITLE2=The Borderline
TTITLE3=Old Paint
TTITLE4=The Fever
TTITLE5=Bang A Drum (With Jon Bon Jovi)
TTITLE6=Ole Slew Foot
TTITLE7=One Ride In Vegas
TTITLE8=Sometimes You've Just Gotta Ride
TTITLE9=Life Is A Highway
TTITLE10=Caballo Diablo (With Charlie Daniels)
TTITLE11=One Road Man
TTITLE12=The Passenger (Bonus Track)
EXTD=
EXTT0=
EXTT1=
EXTT2=
EXTT3=
EXTT4=
EXTT5=
EXTT6=
EXTT7=
EXTT8=
EXTT9=
EXTT10=
EXTT11=
EXTT12=
PLAYORDER=
